<svg width="521" height="454" viewBox="0 0 521 454" fill="none" xmlns="http://www.w3.org/2000/svg">
<rect x="205.992" y="39.9658" width="248.945" height="275.73" rx="4" fill="white"/>
<rect x="119" y="311" width="249" height="143" rx="4" fill="white"/>
<rect x="30" y="121" width="491" height="244" rx="4" fill="white"/>
<rect x="381" y="83" width="104" height="104" rx="4" fill="#C8B5E0"/>
<rect x="253" y="263" width="153" height="153" rx="4" fill="#9CCAEC"/>
<path d="M317.204 309.895C316.096 306.925 315.189 303.933 315.189 303.247C315.189 302.561 316.096 302 317.204 302C318.771 302 319.218 302.658 319.218 304.961C319.218 306.589 319.672 307.921 320.226 307.921C320.78 307.921 321.233 309.005 321.233 310.33C321.233 311.655 321.686 313.013 322.24 313.349C322.794 313.684 323.247 314.82 323.247 315.874C323.247 316.928 323.701 317.789 324.255 317.789C324.809 317.789 325.262 319.566 325.262 321.737C325.262 325.026 324.927 325.684 323.247 325.684C321.68 325.684 321.233 325.026 321.233 322.724C321.233 321.095 320.78 319.763 320.226 319.763C319.672 319.763 319.218 318.758 319.218 317.529C319.218 316.3 318.312 312.864 317.204 309.895Z" fill="#373342"/>
<path d="M335.335 309.36C335.335 307.98 335.902 306.221 336.594 305.45C338.668 303.142 339.364 303.762 339.364 307.921C339.364 310.092 338.911 311.868 338.357 311.868C337.803 311.868 337.349 313.201 337.349 314.829C337.349 316.457 336.896 317.789 336.342 317.789C335.788 317.789 335.335 318.931 335.335 320.327C335.335 323.689 332.527 326.615 331.225 324.611C330.727 323.844 330.471 322.773 330.655 322.23C330.839 321.688 331.614 319.134 332.375 316.556C333.137 313.978 334.114 311.868 334.547 311.868C334.98 311.868 335.335 310.739 335.335 309.36Z" fill="#373342"/>
<path d="M299.073 310.882C297.965 310.099 297.058 308.669 297.058 307.703C297.058 306.738 297.758 305.947 298.614 305.947C300.403 305.947 305.116 310.253 305.116 311.887C305.116 312.49 307.269 315.064 309.901 317.607C312.533 320.15 315.329 323.451 316.115 324.944C316.901 326.437 317.947 327.658 318.441 327.658C318.934 327.658 319.057 328.102 318.715 328.645C317.542 330.504 313.913 329.632 311.531 326.918C310.22 325.425 309.148 323.836 309.147 323.387C309.147 322.937 307.332 320.862 305.116 318.776C302.9 316.69 301.087 314.381 301.087 313.644C301.087 312.907 300.181 311.664 299.073 310.882Z" fill="#373342"/>
<path d="M348.962 317.789C349.532 317.789 350.652 316.901 351.451 315.816C353.292 313.315 357.495 313.152 357.495 315.582C357.495 316.538 356.287 318.204 354.811 319.283C353.334 320.361 351.553 321.799 350.853 322.477C350.153 323.156 349.195 323.711 348.724 323.711C348.252 323.711 347.214 324.599 346.415 325.684C345.616 326.77 344.157 327.658 343.17 327.658C342.185 327.658 341.378 328.102 341.378 328.645C341.378 329.187 340.925 329.632 340.371 329.632C339.817 329.632 339.364 328.692 339.364 327.543C339.364 325.471 346.923 317.789 348.962 317.789Z" fill="#373342"/>
<path d="M293.029 329.632C291.686 329.632 291.015 328.973 291.015 327.658C291.015 326.342 291.686 325.684 293.029 325.684C294.137 325.684 295.044 326.048 295.044 326.492C295.044 326.937 297.31 327.906 300.08 328.645C302.85 329.384 305.116 330.352 305.116 330.797C305.116 331.241 306.476 331.605 308.138 331.605C309.8 331.605 311.16 332.049 311.16 332.592C311.16 333.135 312.067 333.579 313.175 333.579C314.517 333.579 315.189 334.237 315.189 335.553C315.189 336.987 314.517 337.526 312.73 337.526C311.378 337.526 309.992 337.082 309.649 336.539C309.307 335.997 308.147 335.553 307.072 335.553C305.996 335.553 305.116 335.109 305.116 334.566C305.116 334.023 304.21 333.579 303.102 333.579C301.994 333.579 301.087 333.135 301.087 332.592C301.087 332.049 299.728 331.605 298.066 331.605C296.403 331.605 295.044 331.161 295.044 330.618C295.044 330.076 294.137 329.632 293.029 329.632Z" fill="#373342"/>
<path d="M350.696 331.59C355.82 331.582 360.693 331.144 361.524 330.618C363.683 329.252 366.48 329.411 368.095 330.994C370.068 332.927 368.926 333.579 363.572 333.579C361.005 333.579 358.474 333.992 357.948 334.498C357.422 335.004 354.045 335.483 350.444 335.563C341.317 335.766 341.378 335.779 341.378 333.579C341.378 331.748 342.055 331.604 350.696 331.59Z" fill="#373342"/>
<path d="M302.095 341.822C305.142 341.535 308.066 340.895 308.592 340.4C309.854 339.213 310.037 339.245 311.808 340.98C314.197 343.321 311.305 345.421 305.692 345.421C303.159 345.421 301.087 345.865 301.087 346.408C301.087 346.957 298.401 347.395 295.044 347.395C289.788 347.395 289 347.151 289 345.529C289 343.523 291.481 342.821 302.095 341.822Z" fill="#373342"/>
<path d="M346.847 345.421C344.513 345.421 341.378 343.482 341.378 342.037C341.378 341.727 343.192 341.474 345.408 341.474C347.624 341.474 349.437 341.918 349.437 342.461C349.437 343.003 350.425 343.447 351.632 343.447C352.838 343.447 355.445 343.946 357.423 344.555C364.212 346.645 365.298 347.658 363.588 350.31C362.641 351.777 361.944 351.607 355.243 348.266C354.281 347.787 352.58 347.395 351.465 347.395C350.349 347.395 349.437 346.951 349.437 346.408C349.437 345.865 348.271 345.421 346.847 345.421Z" fill="#373342"/>
<path d="M308.337 350.274C309.89 349.645 311.16 348.739 311.16 348.262C311.16 347.785 312.52 347.395 314.182 347.395C316.532 347.395 317.204 347.833 317.204 349.368C317.204 350.454 316.609 351.342 315.883 351.342C315.156 351.342 313.683 352.12 312.61 353.069C311.535 354.018 309.409 355.427 307.886 356.196C306.363 356.966 305.116 357.966 305.116 358.417C305.116 358.868 304.31 359.237 303.325 359.237C302.338 359.237 300.879 360.125 300.08 361.211C299.281 362.296 297.822 363.184 296.836 363.184C295.85 363.184 295.044 363.628 295.044 364.171C295.044 364.714 294.59 365.158 294.036 365.158C293.482 365.158 293.032 364.158 293.036 362.938C293.04 361.474 294.328 359.876 296.813 358.25C298.887 356.893 301.693 354.801 303.049 353.602C304.404 352.402 306.783 350.905 308.337 350.274Z" fill="#373342"/>
<path d="M345.123 357.305C343.644 357.227 337.349 350.426 337.349 348.908C337.349 345.782 340.843 347.615 348.104 354.549C352.226 358.484 356.024 361.852 356.546 362.033C357.665 362.42 357.843 367.136 356.739 367.123C356.323 367.119 353.718 364.917 350.948 362.23C348.178 359.544 345.556 357.327 345.123 357.305Z" fill="#373342"/>
<path d="M317.204 354.892C317.204 354.115 317.771 353.281 318.463 353.038C319.156 352.795 320.061 352.784 320.477 353.014C321.613 353.642 321.386 359.237 320.226 359.237C319.672 359.237 319.218 360.569 319.218 362.197C319.218 363.826 318.765 365.158 318.211 365.158C317.657 365.158 317.204 366.49 317.204 368.118C317.204 369.747 316.751 371.079 316.197 371.079C315.643 371.079 315.189 371.913 315.189 372.932C315.189 373.951 314.495 375.349 313.647 376.039C312.371 377.076 311.861 376.968 310.696 375.419C309.92 374.389 309.708 373.398 310.223 373.217C310.738 373.036 311.16 372.031 311.16 370.983C311.16 369.935 311.56 368.307 312.05 367.364C312.539 366.422 313.499 364.319 314.182 362.691C314.865 361.062 315.825 358.96 316.314 358.017C316.804 357.075 317.204 355.668 317.204 354.892Z" fill="#373342"/>
<path d="M330.298 357.263C328.839 357.263 329.059 353.561 330.55 353.039C332.685 352.293 335.335 355.977 335.335 359.689C335.335 361.611 335.788 363.184 336.342 363.184C336.896 363.184 337.349 364.961 337.349 367.132C337.349 369.303 337.803 371.079 338.357 371.079C338.911 371.079 339.364 372.411 339.364 374.039C339.364 376.342 338.917 377 337.349 377C335.791 377 335.335 376.342 335.335 374.098C335.335 372.501 334.882 370.921 334.328 370.586C333.774 370.25 333.32 368.696 333.32 367.132C333.32 365.567 332.867 364.013 332.313 363.678C331.759 363.342 331.306 361.762 331.306 360.165C331.306 358.569 330.852 357.263 330.298 357.263Z" fill="#373342"/>
<path d="M453.189 160.138C454.556 161.505 456.772 161.505 458.139 160.138C459.506 158.771 459.506 156.555 458.139 155.188L453.189 160.138ZM410.001 112L420.461 151.037L449.038 122.46L410.001 112ZM458.139 155.188L434.75 131.799L429.8 136.749L453.189 160.138L458.139 155.188Z" fill="#373342"/>
<rect x="-8" y="170" width="158" height="158" rx="4" fill="#BEFF6C"/>
<rect x="9.60156" y="295.135" width="11.2785" height="11.2785" rx="1" stroke="#373342" stroke-width="2"/>
<rect x="62.6172" y="295.135" width="11.2785" height="11.2785" rx="1" stroke="#373342" stroke-width="2"/>
<rect x="115.625" y="295.135" width="11.2785" height="11.2785" rx="1" stroke="#373342" stroke-width="2"/>
<rect x="115.625" y="240.607" width="11.2785" height="11.2785" rx="1" stroke="#373342" stroke-width="2"/>
<rect x="9.60156" y="240.607" width="11.2785" height="11.2785" rx="1" stroke="#373342" stroke-width="2"/>
<rect x="115.625" y="187.599" width="11.2785" height="11.2785" rx="1" stroke="#373342" stroke-width="2"/>
<rect x="62.6172" y="187.599" width="11.2785" height="11.2785" rx="1" stroke="#373342" stroke-width="2"/>
<rect x="9.60156" y="187.599" width="11.2785" height="11.2785" rx="1" stroke="#373342" stroke-width="2"/>
<line x1="17.4062" y1="203.195" x2="17.4062" y2="241.06" stroke="#373342" stroke-dasharray="4 4"/>
<line x1="124.355" y1="203.403" x2="124.355" y2="241.268" stroke="#373342" stroke-dasharray="4 4"/>
<line x1="16.8164" y1="256.415" x2="16.8164" y2="295.794" stroke="#373342" stroke-dasharray="4 4"/>
<line x1="124.355" y1="256.415" x2="124.355" y2="295.794" stroke="#373342" stroke-dasharray="4 4"/>
<line x1="25.4102" y1="304.381" x2="64.7891" y2="304.381" stroke="#373342" stroke-dasharray="4 4"/>
<line x1="25.4102" y1="195.331" x2="64.7891" y2="195.331" stroke="#373342" stroke-dasharray="4 4"/>
<line x1="79.9766" y1="303.944" x2="116.492" y2="303.944" stroke="#373342" stroke-dasharray="4 4"/>
<line x1="79.9766" y1="196.058" x2="116.492" y2="196.058" stroke="#373342" stroke-dasharray="4 4"/>
<path d="M71.6645 252.12L65.2669 236.345L59.7418 252.411C59.3783 253.502 59.0875 254.301 59.0875 254.665C59.0875 255.319 59.451 255.537 60.2506 255.537H70.6467C71.4464 255.537 72.3188 255.247 72.3188 254.301C72.3188 253.865 72.028 252.993 71.6645 252.12ZM43.457 275.021V271.677C47.1647 271.459 48.9822 270.877 51.3813 264.552L66.3574 223.113H73.3366L91.148 266.442C92.8201 270.513 95.8735 271.459 98.2726 271.677V275.021H70.8648V271.677H71.4464C76.1719 271.677 77.3351 269.932 77.3351 268.332C77.3351 267.678 77.0443 266.079 76.4627 264.479L75.0814 260.772C74.5725 259.245 73.8455 258.882 72.3188 258.882H59.451C57.997 258.882 57.27 259.463 56.8338 260.699L55.089 265.933C54.6528 267.315 54.5074 268.332 54.5074 268.987C54.5074 270.586 55.8887 271.677 59.451 271.677H60.396V275.021H43.457Z" fill="#373342"/>
<rect x="100" width="193.799" height="193.799" rx="4" fill="#FFF85A"/>
<path fill-rule="evenodd" clip-rule="evenodd" d="M189.025 36.0869C188.495 36.62 188.153 37.9315 188.153 39.4325V41.9021H174.056H159.959L159.019 40.4613C157.778 38.5587 154.603 37.2556 152.278 37.6939C150.297 38.0669 147.826 40.58 147.276 42.7814C146.397 46.2965 149.433 50.271 152.986 50.2582C156.183 50.2471 157.26 49.8038 158.461 48.0039L159.554 46.3662L167.32 46.3645L175.086 46.3629L172.873 47.5416C162.722 52.9481 153.811 61.9304 148.874 71.7335C147.158 75.1398 144.982 81.5355 144.546 84.4528L144.156 87.0674L141.303 87.0758C136.771 87.0897 136.785 87.0635 136.785 95.7107C136.785 101.831 136.945 103.38 137.618 103.807C138.698 104.492 152.08 104.497 153.157 103.813C154.15 103.183 154.688 92.4203 153.884 89.2978C153.421 87.5012 153.184 87.3239 150.914 87.0674C148.079 86.7468 148.047 86.555 149.86 80.858C153.621 69.0342 161.642 59.0326 172.473 52.6598C175.102 51.1125 183.43 47.8477 186.348 47.2199C188.083 46.8468 188.153 46.8993 188.153 48.5854C188.153 52.3615 188.458 52.4964 196.998 52.4964C205.494 52.4964 205.368 52.5522 205.368 48.7823C205.368 46.8731 205.406 46.8402 207.173 47.2244C217.719 49.5183 229.189 56.8161 235.746 65.4042C239.924 70.8759 243.909 79.4289 244.982 85.2256L245.312 87.0077L242.694 87.1772L240.076 87.3462L239.921 95.3884C239.805 101.449 239.942 103.543 240.476 103.883C240.867 104.132 244.355 104.339 248.228 104.344C253.896 104.351 255.438 104.182 256.141 103.477C256.843 102.772 257.013 101.212 257.013 95.5033C257.013 90.7263 256.796 88.187 256.347 87.7365C255.981 87.3685 254.406 87.0674 252.848 87.0674H250.017L248.508 81.6771C244.518 67.4238 235.798 56.2245 222.712 48.5459L218.991 46.3629H226.285H233.579L235.522 48.3144C237.192 49.9911 237.834 50.266 240.076 50.266C242.304 50.266 242.963 49.9884 244.574 48.3702C246.183 46.7549 246.462 46.0891 246.462 43.8665C246.462 39.3712 242.559 36.6016 238.11 37.9398C236.852 38.3184 235.481 39.2691 234.79 40.2432L233.614 41.9021H219.491H205.368V39.1336C205.368 36.9674 205.134 36.2397 204.294 35.7881C203.703 35.4708 200.222 35.2109 196.559 35.2109C191.244 35.2109 189.722 35.3883 189.025 36.0869ZM192.596 43.8303C192.596 46.1432 192.783 48.0652 193.012 48.102C195.318 48.4678 200.931 48.2375 200.953 47.7764C200.968 47.4591 201.018 45.5683 201.063 43.5749L201.145 39.9505L196.87 39.7877L192.596 39.6249V43.8303ZM151.897 42.2484C151.069 43.0797 151.536 45.227 152.68 45.8415C153.656 46.3662 154.059 46.2725 155.032 45.2956C155.958 44.3661 156.078 43.9122 155.602 43.1489C154.973 42.1402 152.583 41.5592 151.897 42.2484ZM238.826 42.2612C237.706 42.7312 238.012 45.144 239.279 45.8242C240.817 46.6511 242.132 45.5504 241.909 43.6228C241.743 42.1893 240.405 41.5982 238.826 42.2612ZM195.249 69.0849C194.782 69.6213 192.459 73.4481 190.088 77.5882C187.717 81.7284 182.902 90.1342 179.388 96.2677C166.552 118.67 164.829 121.807 164.829 122.784C164.829 123.33 165.685 124.309 166.731 124.958C169.218 126.501 174.566 132.324 175.885 134.925C178.035 139.164 178.663 142.653 178.742 150.795C178.785 155.272 179.066 159.022 179.389 159.416C180.193 160.398 213.165 160.425 214.142 159.443C214.583 159.001 214.81 156.596 214.812 152.334C214.814 148.792 215.056 144.417 215.351 142.611C216.43 135.995 220.676 129.353 226.319 125.455C227.964 124.318 228.692 123.418 228.692 122.519C228.692 121.806 226.542 117.489 223.915 112.927C221.288 108.365 215.758 98.7351 211.627 91.5282C198.754 69.0699 198.157 68.1091 197.092 68.1091C196.546 68.1091 195.717 68.5485 195.249 69.0849ZM191.694 83.7218C187.636 90.4799 171.6 118.562 170.833 120.253C170.234 121.572 170.402 121.871 173.258 124.582C178.32 129.386 181.362 135.02 182.959 142.548L183.433 144.779L196.913 144.928C207.428 145.045 210.435 144.922 210.585 144.37C210.69 143.982 211.056 142.158 211.397 140.318C212.409 134.859 215.319 129.652 219.768 125.339L223.673 121.554L222.577 119.505C221.974 118.378 220.792 116.293 219.949 114.872C219.107 113.451 214.17 104.857 208.978 95.7759C203.785 86.6949 199.35 79.2638 199.121 79.2627C198.891 79.2616 198.704 86.0291 198.704 94.3016V109.343L200.316 110.18C203.455 111.81 205.059 116.159 203.755 119.511C201.771 124.613 194.473 125.767 191.295 121.482C188.547 117.774 189.023 113.965 192.623 110.871L194.835 108.97L194.687 93.976L194.539 78.9822L191.694 83.7218ZM141.873 91.4295C141.112 91.5783 140.95 92.335 140.95 95.7508V99.8921H145.416H149.882L149.72 95.6488L149.558 91.4049L146.177 91.3274C144.317 91.2845 142.381 91.3302 141.873 91.4295ZM244.241 95.7101V99.8921H248.406H252.571V95.7101V91.5282H248.406H244.241V95.7101ZM194.506 115.199C193.4 116.893 193.89 118.704 195.675 119.521C198.534 120.829 201.17 116.945 198.942 114.708C197.63 113.391 195.534 113.623 194.506 115.199ZM183.155 152.297V155.652H197.066H210.977L210.81 152.446L210.644 149.239L196.899 149.09L183.155 148.941V152.297Z" fill="#373342"/>
</svg>
