<svg width="32" height="32" viewBox="0 0 32 32" fill="none" xmlns="http://www.w3.org/2000/svg">
<path fill-rule="evenodd" clip-rule="evenodd" d="M9.99935 5.33317C7.4224 5.33317 5.33268 7.42288 5.33268 9.99984V22.0052C5.33268 24.5795 7.41973 26.6665 9.99401 26.6665H15.8665V18.533H14.7988C14.0624 18.533 13.4655 17.9361 13.4655 17.1997C13.4655 16.4633 14.0624 15.8664 14.7988 15.8664H15.8665V14.7397C15.8665 12.0487 18.0488 9.86637 20.7399 9.86637H21.9999C22.7362 9.86637 23.3332 10.4633 23.3332 11.1997C23.3332 11.9361 22.7362 12.533 21.9999 12.533H20.7399C19.5216 12.533 18.5332 13.5214 18.5332 14.7397V15.8664H21.9988C22.7352 15.8664 23.3322 16.4633 23.3322 17.1997C23.3322 17.9361 22.7352 18.533 21.9988 18.533H18.5332V26.6665H22.0047C24.5792 26.6665 26.666 24.5793 26.666 22.0065V9.9945C26.666 7.42022 24.579 5.33317 22.0047 5.33317H9.99935ZM9.99935 2.6665H22.0047C26.0517 2.6665 29.3327 5.94746 29.3327 9.9945V22.0065C29.3327 26.0524 26.0515 29.3332 22.0047 29.3332H9.99401C5.94697 29.3332 2.66602 26.0522 2.66602 22.0052V9.99984C2.66602 5.95012 5.94964 2.6665 9.99935 2.6665Z" fill="#F35A79"/>
</svg>
