<svg width="32" height="32" viewBox="0 0 32 32" fill="none" xmlns="http://www.w3.org/2000/svg">
<path fill-rule="evenodd" clip-rule="evenodd" d="M9.99401 5.33317C7.41859 5.33317 5.33268 7.42002 5.33268 9.9945V22.0052C5.33268 24.5806 7.41954 26.6665 9.99401 26.6665H22.0047C24.5803 26.6665 26.666 24.5795 26.666 22.0065V9.9945C26.666 7.41888 24.579 5.33317 22.006 5.33317H9.99401ZM9.99401 2.6665H22.006C26.0517 2.6665 29.3327 5.94612 29.3327 9.9945V22.0065C29.3327 26.0522 26.0531 29.3332 22.0047 29.3332H9.99401C5.94716 29.3332 2.66602 26.0537 2.66602 22.0052V9.9945C2.66602 5.94765 5.94544 2.6665 9.99401 2.6665ZM24.3862 9.40679C24.3862 10.3899 23.5892 11.1868 22.6062 11.1868C21.6231 11.1868 20.8262 10.3899 20.8262 9.40679C20.8262 8.42372 21.6231 7.62679 22.6062 7.62679C23.5892 7.62679 24.3862 8.42372 24.3862 9.40679ZM13.5486 13.5484C14.9024 12.1946 17.0974 12.1946 18.4512 13.5484C19.805 14.9022 19.805 17.0972 18.4512 18.451C17.0974 19.8048 14.9024 19.8048 13.5486 18.451C12.1947 17.0972 12.1947 14.9022 13.5486 13.5484ZM11.663 11.6628C14.0582 9.26757 17.9416 9.26757 20.3368 11.6628C22.732 14.058 22.732 17.9414 20.3368 20.3366C17.9416 22.7319 14.0582 22.7319 11.663 20.3366C9.26773 17.9414 9.26773 14.058 11.663 11.6628Z" fill="#F35A79"/>
</svg>
