<svg width="32" height="32" viewBox="0 0 32 32" fill="none" xmlns="http://www.w3.org/2000/svg">
<path fill-rule="evenodd" clip-rule="evenodd" d="M5.33268 9.99984C5.33268 7.42288 7.4224 5.33317 9.99935 5.33317H22.0047C24.579 5.33317 26.666 7.42022 26.666 9.9945V22.0065C26.666 24.5793 24.5792 26.6665 22.0047 26.6665H9.99401C7.41973 26.6665 5.33268 24.5795 5.33268 22.0052V9.99984ZM22.0047 2.6665H9.99935C5.94964 2.6665 2.66602 5.95012 2.66602 9.99984V22.0052C2.66602 26.0522 5.94697 29.3332 9.99401 29.3332H22.0047C26.0515 29.3332 29.3327 26.0524 29.3327 22.0065V9.9945C29.3327 5.94746 26.0517 2.6665 22.0047 2.6665ZM12.1593 14.7998C12.1593 14.0634 11.5624 13.4665 10.826 13.4665C10.0896 13.4665 9.49268 14.0634 9.49268 14.7998V21.9998C9.49268 22.7362 10.0896 23.3331 10.826 23.3331C11.5624 23.3331 12.1593 22.7362 12.1593 21.9998V14.7998ZM18.6243 16.1333C17.7034 16.1333 16.9577 16.879 16.9577 17.8V22C16.9577 22.7363 16.3607 23.3333 15.6243 23.3333C14.888 23.3333 14.291 22.7363 14.291 22V17.8C14.291 15.4063 16.2306 13.4666 18.6243 13.4666C21.0181 13.4666 22.9577 15.4063 22.9577 17.8V22C22.9577 22.7363 22.3607 23.3333 21.6243 23.3333C20.888 23.3333 20.291 22.7363 20.291 22V17.8C20.291 16.879 19.5453 16.1333 18.6243 16.1333ZM10.8332 12.3863C11.7353 12.3863 12.4665 11.655 12.4665 10.753C12.4665 9.8509 11.7353 9.11963 10.8332 9.11963C9.93114 9.11963 9.19987 9.8509 9.19987 10.753C9.19987 11.655 9.93114 12.3863 10.8332 12.3863Z" fill="#F35A79"/>
</svg>
