<svg width="500" height="270" viewBox="0 0 500 270" fill="none" xmlns="http://www.w3.org/2000/svg">
<path d="M0 135.451L412.475 114.188L419.402 248.559L6.92699 269.823L0 135.451Z" fill="#F35A79"/>
<path d="M414.021 100.082V0H446.666C457.502 0 466.906 2.14941 474.877 6.44823C482.847 10.747 489.027 16.6579 493.415 24.1809C497.804 31.7038 499.998 40.3014 499.998 49.9738C499.998 59.6461 497.804 68.2885 493.415 75.901C489.027 83.4239 482.847 89.3348 474.877 93.6336C466.906 97.9324 457.502 100.082 446.666 100.082H414.021ZM434.844 81.9462H447.203C453.741 81.9462 459.383 80.6476 464.13 78.0504C468.876 75.3636 472.548 71.647 475.145 66.9003C477.832 62.0642 479.175 56.422 479.175 49.9738C479.175 43.436 477.832 37.7938 475.145 33.0472C472.548 28.3006 468.876 24.6286 464.13 22.0314C459.383 19.4342 453.741 18.1356 447.203 18.1356H434.844V81.9462Z" fill="white"/>
<path d="M307.607 100.082V0H323.594L377.329 70.7962L368.731 72.8112V0H389.554V100.082H373.433L320.638 28.7483L328.43 26.7333V100.082H307.607Z" fill="white"/>
<path d="M195.09 100.082L228.943 0H256.617L290.47 100.082H267.767L261.05 79.6625H224.376L217.659 100.082H195.09ZM230.152 61.5268H255.273L239.959 14.2398H245.601L230.152 61.5268Z" fill="white"/>
<path d="M106.18 100.082V0H144.466C151.362 0 157.452 1.20904 162.736 3.62713C168.11 6.04521 172.319 9.62756 175.364 14.3742C178.409 19.1208 179.931 24.9869 179.931 31.9725C179.931 38.7789 178.364 44.6002 175.229 49.4364C172.095 54.183 167.886 57.7654 162.602 60.1834L185.439 100.082H162.064L137.346 55.8846L150.78 63.8106H127.002V100.082H106.18ZM127.002 45.6749H144.6C147.556 45.6749 150.108 45.0928 152.258 43.9285C154.407 42.7643 156.064 41.1522 157.228 39.0924C158.482 37.0325 159.109 34.6592 159.109 31.9725C159.109 29.1961 158.482 26.778 157.228 24.7182C156.064 22.6583 154.407 21.0463 152.258 19.882C150.108 18.7178 147.556 18.1356 144.6 18.1356H127.002V45.6749Z" fill="white"/>
<path d="M6.70703 100.082V0H49.0235C55.9195 0 61.8304 1.16426 66.7561 3.49279C71.6819 5.82132 75.4433 9.17977 78.0405 13.5681C80.6377 17.867 81.9363 23.1062 81.9363 29.2857C81.9363 33.6741 80.7273 37.8833 78.3092 41.9135C75.8911 45.8541 71.9058 49.1677 66.3531 51.8545V41.6448C71.6371 43.7046 75.712 46.1675 78.5779 49.0334C81.4438 51.8993 83.4141 55.0338 84.4888 58.4371C85.5635 61.7507 86.1008 65.2435 86.1008 68.9154C86.1008 78.7669 82.8319 86.4242 76.2941 91.8872C69.7564 97.3503 60.6661 100.082 49.0235 100.082H6.70703ZM27.5294 81.9462H51.4416C55.6509 81.9462 59.0093 80.7372 61.517 78.3191C64.0246 75.901 65.2784 72.7664 65.2784 68.9154C65.2784 64.9748 64.0246 61.7955 61.517 59.3774C59.0093 56.9593 55.6509 55.7503 51.4416 55.7503H27.5294V81.9462ZM27.5294 37.6147H50.5012C53.7253 37.6147 56.2778 36.7191 58.1585 34.9279C60.1288 33.0472 61.1139 30.5843 61.1139 27.5393C61.1139 24.4943 60.1288 22.0762 58.1585 20.285C56.2778 18.4043 53.7253 17.464 50.5012 17.464H27.5294V37.6147Z" fill="white"/>
<path fill-rule="evenodd" clip-rule="evenodd" d="M153.561 144.872C147.089 147.224 138.282 151.173 133.987 153.651C129.692 156.129 124.244 158.154 121.882 158.154C119.517 158.154 113.989 161.016 109.6 164.512C102.405 170.242 102.064 171.323 106.153 175.462C109.909 179.268 112.036 179.435 118.531 176.439C122.847 174.449 126.765 173.217 127.242 173.699C129.498 175.983 129.554 191.04 127.365 206.499C124.347 227.825 126.209 234.085 134.269 229.719C141.014 226.065 144.038 212.795 144.447 185.048L144.736 165.599L160.915 157.621C185.781 145.36 179.965 135.273 153.561 144.872ZM62.3632 149.237C53.2823 152.662 40.3066 170.295 40.3066 179.208C40.3066 188.67 44.2926 192.508 59.7363 197.916C80.272 205.105 73.1473 214.736 47.2931 214.736C41.7775 214.736 40.3066 216.324 40.3066 222.274C40.3066 232.274 44.9133 233.575 63.3634 228.796C81.7752 224.025 90.3149 217.333 90.3149 207.672C90.3149 200.189 76.8156 187.612 64.5753 183.693C54.762 180.554 56.5093 174.003 69.6026 164.824C76.0066 160.337 80.9045 155.453 80.4809 153.973C79.2366 149.592 68.7113 146.843 62.3632 149.237ZM244.661 161.876C234.571 171.358 234.356 172.058 233.959 196.305C233.636 216.136 234.559 222.056 238.607 226.086C243.355 230.812 243.99 230.711 249.091 224.415C255.76 216.184 259.457 216.071 273.466 223.671C286.962 230.994 287.406 230.999 287.406 223.888C287.406 217.816 274.554 205.802 268.062 205.802C260.178 205.802 260.749 199.352 269.53 189.23C292.433 162.823 269.962 138.103 244.661 161.876ZM345.78 174.566L336.049 193.956L332.325 183.068C330.278 177.079 327.113 170.364 325.295 168.145C320.409 162.189 311.604 163.243 307.912 170.227C298.437 188.151 293.122 223.918 298.017 236.827C301.335 245.58 307.998 242.131 307.998 231.664C307.998 218.727 313.728 187.106 316.626 184.057C317.873 182.74 320.62 189.9 322.73 199.962C328.569 227.813 335.923 227.575 348.263 199.137L355.064 183.467L354.364 202.211C353.676 220.722 357.2 228.227 365.36 225.609C368.714 224.531 370.885 179.465 368.287 164.854C365.387 148.549 357.023 152.159 345.78 174.566ZM172.452 169.405C160.521 180.2 156.932 198.19 162.75 218.033C169.387 240.651 184.798 241.089 204.707 219.224C213.403 209.674 216.874 202.911 218.412 192.52C220.283 179.899 219.704 177.791 212.206 169.869C200.951 157.975 185.292 157.79 172.452 169.405ZM257.083 167.928C251.044 172.576 245.27 188.16 248.411 191.341C251.812 194.784 266.814 179.917 266.814 173.1C266.814 165.569 262.873 163.475 257.083 167.928ZM183.23 184.462C180.756 189.304 177.865 198.765 176.803 205.49C175.076 216.422 175.499 217.714 180.827 217.714C190.461 217.714 205.54 198.059 204.469 186.895C203.731 179.199 202.142 177.344 195.647 176.585C189.384 175.852 186.784 177.502 183.23 184.462Z" fill="white"/>
<path fill-rule="evenodd" clip-rule="evenodd" d="M434.293 146.096C411.512 146.834 390.336 149.767 377.46 152.253C375.639 152.605 373.864 151.443 373.482 149.628V149.628C373.1 147.813 374.24 146.035 376.061 145.682C398.603 141.32 446.542 135.508 485.041 142.356C486.901 142.687 488.153 144.425 487.926 146.301V146.301C487.699 148.177 486.07 149.559 484.181 149.51C471.424 149.176 452.758 149.847 434.566 152.857C432.485 153.202 430.42 153.576 428.377 153.98C425.624 154.525 426.303 157.45 429.099 157.198V157.198C446.82 155.601 466.251 156.209 482.52 162.119C484.317 162.773 485.295 164.682 484.873 166.547V166.547C484.451 168.413 482.749 169.701 480.838 169.638C469.756 169.273 453.717 169.606 438.07 171.68C432.062 172.477 426.149 173.526 420.62 174.877C424.706 174.324 428.894 173.845 433.058 173.485C440.613 172.833 448.16 172.57 454.895 172.997C460.205 173.333 465.211 174.109 469.369 175.582C471.175 176.221 472.068 178.167 471.628 180.031V180.031C471.188 181.895 469.524 183.208 467.609 183.244C459.478 183.397 448.489 184.121 438.628 185.849C437.637 186.022 436.663 186.205 435.707 186.397C434.138 186.714 434.434 188.542 436.035 188.503V188.503C440.085 188.404 444.02 188.423 447.322 188.646C448.971 188.758 450.514 188.923 451.861 189.164C453.16 189.397 454.488 189.734 455.587 190.284V190.284C458.532 191.756 457.819 196.147 454.56 196.612V196.612C450.768 197.154 444.912 198.295 439.732 199.932V199.932C438.562 200.302 438.716 201.875 439.926 202.076L450.7 203.872C453.033 204.261 453.506 207.407 451.39 208.465V208.465C449.275 209.523 449.748 212.669 452.081 213.058L455.032 213.55C458.236 214.084 458.92 218.301 456.014 219.754C453.538 220.993 450.8 222.32 448.161 223.514C445.121 224.888 446.296 226.139 448.889 227.158C452.305 228.499 453.132 233.592 449.843 235.22L445.053 237.59C444.329 237.949 444.317 238.976 445.031 239.352L449.989 241.961C450.06 241.998 450.129 241.908 450.073 241.849V241.849C450.051 241.826 450.014 241.821 449.986 241.837L447.621 243.238C445.861 244.28 443.586 243.61 442.671 241.781L441.086 238.611C440.283 237.004 440.802 235.05 442.297 234.053V234.053C444.574 232.535 444.361 229.124 441.914 227.9L437.162 225.524C435.506 224.696 435.506 222.332 437.162 221.503V221.503C439.11 220.53 438.674 217.633 436.527 217.275L430.602 216.288C428.269 215.899 427.796 212.752 429.911 211.695V211.695C432.027 210.637 431.554 207.491 429.221 207.102L426.597 206.664C424.402 206.299 423.187 203.913 424.182 201.923L424.213 201.861C425.362 199.563 427.661 197.919 429.838 196.731V196.731C430.418 196.414 430.182 195.442 429.522 195.476C423.735 195.772 418.117 196.229 414.117 196.629V196.629C411.486 196.893 409.597 194.151 410.779 191.786V191.786C412.694 187.956 416.879 185.378 421.334 183.548C424.478 182.256 428.112 181.197 431.965 180.328C419.344 181.513 406.603 183.777 397.581 185.759C395.71 186.17 393.791 185.28 392.924 183.572V183.572C392.057 181.864 392.459 179.767 394.02 178.657C398.875 175.202 404.961 172.522 411.573 170.428C419.452 167.933 428.305 166.199 437.187 165.022C442.768 164.282 448.39 163.758 453.829 163.404C445.865 162.927 437.681 163.169 429.701 163.888C413.15 165.379 397.808 168.89 387.731 171.972C385.899 172.532 383.908 171.814 382.901 170.184V170.184C381.894 168.555 382.127 166.432 383.582 165.187C395.444 155.034 414.61 149.352 433.47 146.231C433.744 146.185 434.018 146.14 434.293 146.096Z" fill="white"/>
</svg>
